HIERARCHY
ROOT Hips
{
	OFFSET	0.00	0.00	0.00
	CHANNELS 6 Xposition Yposition Zposition Zrotation Xrotation Yrotation
	JOINT LeftUpLeg
	{
		OFFSET	 0.126116	-0.065224	 0.014019
		CHANNELS 3 Zrotation Xrotation Yrotation
		JOINT LeftLeg
		{
			OFFSET	 0.000000	 0.569914	 0.000000
			CHANNELS 3 Zrotation Xrotation Yrotation
			JOINT LeftFoot
			{
				OFFSET	 0.000000	 0.544423	 0.000000
				CHANNELS 3 Zrotation Xrotation Yrotation
				JOINT LeftToeBase
				{
					OFFSET	 0.000000	 0.207117	 0.000000
					CHANNELS 3 Zrotation Xrotation Yrotation
					End Site
					{
						OFFSET	 0.000000	 0.207117	 0.000000
					}
				}
			}
		}
	}
	JOINT RightUpLeg
	{
		OFFSET	-0.124023	-0.065224	 0.008373
		CHANNELS 3 Zrotation Xrotation Yrotation
		JOINT RightLeg
		{
			OFFSET	 0.000000	 0.570047	 0.000000
			CHANNELS 3 Zrotation Xrotation Yrotation
			JOINT RightFoot
			{
				OFFSET	 0.000000	 0.544354	 0.000000
				CHANNELS 3 Zrotation Xrotation Yrotation
				JOINT RightToeBase
				{
					OFFSET	 0.000000	 0.207540	 0.000000
					CHANNELS 3 Zrotation Xrotation Yrotation
					End Site
					{
						OFFSET	 0.000000	 0.207540	 0.000000
					}
				}
			}
		}
	}
	JOINT Spine
	{
		OFFSET	 0.000184	 0.117403	 0.007763
		CHANNELS 3 Zrotation Xrotation Yrotation
		JOINT Spine1
		{
			OFFSET	 0.000000	 0.137269	 0.000000
			CHANNELS 3 Zrotation Xrotation Yrotation
			JOINT Spine2
			{
				OFFSET	 0.000000	 0.156879	 0.000000
				CHANNELS 3 Zrotation Xrotation Yrotation
				JOINT LeftShoulder
				{
					OFFSET	 0.080501	 0.160143	 0.002496
					CHANNELS 3 Zrotation Xrotation Yrotation
					JOINT LeftArm
					{
						OFFSET	 0.000000	 0.164363	 0.000000
						CHANNELS 3 Zrotation Xrotation Yrotation
						JOINT LeftForeArm
						{
							OFFSET	 0.000000	 0.364576	 0.000000
							CHANNELS 3 Zrotation Xrotation Yrotation
							JOINT LeftHand
							{
								OFFSET	 0.000000	 0.360812	 0.000000
								CHANNELS 3 Zrotation Xrotation Yrotation
								JOINT LeftHandIndex1
								{
									OFFSET	 0.000000	 0.086006	 0.000000
									CHANNELS 3 Zrotation Xrotation Yrotation
									JOINT LeftHandIndex2
									{
										OFFSET	 0.000000	 0.047237	 0.000000
										CHANNELS 3 Zrotation Xrotation Yrotation
										JOINT LeftHandIndex3
										{
											OFFSET	-0.004284	 0.038165	 0.000551
											CHANNELS 3 Zrotation Xrotation Yrotation
											End Site
											{
												OFFSET	-0.004284	 0.038165	 0.000551
											}
										}
									}
								}
							}
						}
					}
				}
				JOINT Neck
				{
					OFFSET	 0.000000	 0.176489	 0.000000
					CHANNELS 3 Zrotation Xrotation Yrotation
					JOINT Head
					{
						OFFSET	 0.000000	 0.077941	 0.001747
						CHANNELS 3 Zrotation Xrotation Yrotation
						End Site
						{
							OFFSET	 0.000000	 0.077941	 0.001747
						}
					}
				}
				JOINT RightShoulder
				{
					OFFSET	-0.080363	 0.159706	-0.000306
					CHANNELS 3 Zrotation Xrotation Yrotation
					JOINT RightArm
					{
						OFFSET	 0.000000	 0.164196	 0.000000
						CHANNELS 3 Zrotation Xrotation Yrotation
						JOINT RightForeArm
						{
							OFFSET	 0.000000	 0.365611	 0.000000
							CHANNELS 3 Zrotation Xrotation Yrotation
							JOINT RightHand
							{
								OFFSET	 0.000000	 0.360648	 0.000000
								CHANNELS 3 Zrotation Xrotation Yrotation
								JOINT RightHandIndex1
								{
									OFFSET	 0.000000	 0.069977	 0.000000
									CHANNELS 3 Zrotation Xrotation Yrotation
									JOINT RightHandIndex2
									{
										OFFSET	 0.000000	 0.052305	 0.000000
										CHANNELS 3 Zrotation Xrotation Yrotation
										JOINT RightHandIndex3
										{
											OFFSET	 0.009002	 0.042196	 0.000782
											CHANNELS 3 Zrotation Xrotation Yrotation
											End Site
											{
												OFFSET	 0.009002	 0.042196	 0.000782
											}
										}
									}
								}
							}
						}
					}
				}
			}
		}
	}
}
MOTION
Frames:    4
Frame Time: 0.03333334
-0.004416	 1.226707	-2.005971	 0.360477	 2.148549	-171.484000	 176.776900	-1.976771	 2.295498	 11.420350	-56.201340	 11.438850	-0.567426	 64.497220	 6.744075	 3.679453	 51.514510	-3.513485	-174.207400	 29.635410	-7.251605	-3.022245	-35.037120	 5.455645	-3.579036	 62.451820	 3.224005	-1.623892	 32.600290	 2.864054	 2.304816	 6.464136	-7.792440	 1.480307	 6.012076	-2.303151	-0.664774	-8.092025	-0.406799	-120.563700	 8.188502	 94.345740	 9.116278	 42.742610	 3.769783	 39.087020	-1.868627	 0.579513	 2.722995	-45.405010	 4.834591	 5.083336	 22.542320	-2.052673	-5.870975	 25.907030	 2.871372	 5.570432	 10.015070	-0.077454	-0.007969	-5.007595	-0.080345	-1.782881	-1.848679	-2.198053	 119.736700	-1.492412	-90.173020	 38.274900	 46.532890	-29.121830	-36.594360	-1.343721	-0.385774	-8.498405	-30.609290	-22.843890	-2.031706	 13.474360	 1.135803	 13.579730	 33.121080	-7.841129	-8.480995	 11.117480	-0.400349
 0.002673	 1.249779	-2.199260	 1.271710	 3.474997	-174.094800	 178.280000	 13.998030	-2.318984	 23.617910	-71.693730	 23.208790	-2.906906	 61.133060	 8.615283	 1.825956	 34.798710	-2.874052	-170.918600	 18.357230	-8.412255	-3.009965	-34.927710	 1.651500	-17.053750	 67.966050	 16.380670	-1.475017	 30.764190	 2.793013	 2.636720	 7.325962	-3.679441	 0.939510	 6.095836	-1.018052	-0.341942	-7.968797	-0.799755	-120.183100	 7.479868	 93.968690	-2.790195	 46.824590	 11.430060	 33.879600	-1.652244	 0.419425	 8.791015	-41.313060	 13.129480	 4.937380	 24.075560	-2.100012	-5.881964	 27.277500	 3.029098	 5.646082	 11.837230	-0.052833	 0.083390	-4.881068	-0.210968	-1.798841	-1.817184	-2.891221	 120.015200	-0.666944	-90.573120	 22.901560	 49.675410	-19.391040	-34.695490	-1.283059	-0.342210	-5.265743	-36.370990	-12.554190	-2.420305	 17.372380	 1.344885	 14.140780	 36.839790	-8.960745	-8.508421	 14.035350	-0.584452
-0.000276	 1.267834	-2.483044	-0.625363	 1.591283	-178.201800	 178.629100	 34.737730	-10.433480	 8.077905	-46.672410	 2.636345	-19.129480	 61.005020	 23.368960	 1.357254	 29.272820	-2.741205	-173.194600	 1.296423	-8.982858	-2.155294	-26.572130	-2.814233	-47.846980	 72.318810	 42.597950	-1.880623	 35.603920	 2.996331	-0.350149	 6.541420	 2.943663	 0.292841	 7.160002	 0.951610	-0.313330	-8.749680	-0.873347	-120.156900	 5.303115	 92.913380	-33.174390	 48.058250	 33.251070	 35.888770	-1.737467	 0.478884	 13.027230	-33.940090	 27.759460	 4.986708	 27.690190	-2.135176	-5.929467	 30.712560	 3.435292	 5.784199	 15.177150	-0.013691	 0.151606	-4.819990	-0.552969	-2.598370	-2.699279	-3.823291	 119.518600	 1.104342	-91.395560	-2.623606	 47.894360	-8.329172	-40.754230	-1.471289	-0.487960	-4.075478	-41.715490	-1.048206	-2.876103	 19.711810	 1.541569	 14.595380	 39.378260	-9.787096	-8.524127	 16.469100	-0.738842
-0.009064	 1.235117	-2.716339	-1.649272	 0.577665	 178.735800	 177.116000	 30.421900	-10.864670	 0.671855	-5.055466	-6.977595	-24.751000	 49.912530	 25.508390	 1.256002	 27.947490	-2.697882	-175.039600	-9.037245	-10.050870	-2.287837	-27.963600	-7.557841	-58.793560	 69.870930	 55.223080	-3.104026	 47.175170	 3.702125	-2.151972	 5.405612	 7.294470	-0.273518	 7.517030	 2.223436	-0.144344	-9.030857	-1.079764	-119.777500	 3.617901	 92.077950	-49.745240	 46.389990	 42.216620	 31.460280	-1.546768	 0.351830	 13.830880	-26.466520	 35.898720	 4.750386	 27.973010	-1.903207	-5.983391	 33.209900	 3.742385	 5.922631	 18.523590	 0.017728	 0.101446	-4.969878	-0.733986	-2.587249	-3.124985	-4.583344	 119.477700	 1.806034	-91.725560	-17.610610	 42.906650	-0.432842	-39.181910	-1.423954	-0.448209	-6.215190	-39.778640	 2.350556	-2.947986	 21.446220	 1.568962	 15.031160	 41.518990	-10.530990	-8.532663	 18.715690	-0.882587
